<?xml version="1.0" encoding="UTF-8" standalone="no"?>
<svg
   xmlns:dc="http://purl.org/dc/elements/1.1/"
   xmlns:cc="http://creativecommons.org/ns#"
   xmlns:rdf="http://www.w3.org/1999/02/22-rdf-syntax-ns#"
   xmlns:svg="http://www.w3.org/2000/svg"
   xmlns="http://www.w3.org/2000/svg"
   xmlns:sodipodi="http://sodipodi.sourceforge.net/DTD/sodipodi-0.dtd"
   xmlns:inkscape="http://www.inkscape.org/namespaces/inkscape"
   version="1.1"
   id="svg4"
   sodipodi:docname="icon.svg"
   inkscape:version="1.0.2 (e86c870879, 2021-01-15)"
   width="140"
   height="140"
   inkscape:export-filename="/media/Datos/workspace/workspaceOdoo/Odoo12/customs_addons_odoo_12/my_library/static/description/icon.png"
   inkscape:export-xdpi="89"
   inkscape:export-ydpi="89">
  <metadata
     id="metadata10">
    <rdf:RDF>
      <cc:Work
         rdf:about="">
        <dc:format>image/svg+xml</dc:format>
        <dc:type
           rdf:resource="http://purl.org/dc/dcmitype/StillImage" />
        <dc:title></dc:title>
      </cc:Work>
    </rdf:RDF>
  </metadata>
  <defs
     id="defs8" />
  <sodipodi:namedview
     pagecolor="#ffffff"
     bordercolor="#666666"
     borderopacity="1"
     objecttolerance="10"
     gridtolerance="10"
     guidetolerance="10"
     inkscape:pageopacity="0"
     inkscape:pageshadow="2"
     inkscape:window-width="1368"
     inkscape:window-height="706"
     id="namedview6"
     showgrid="false"
     inkscape:zoom="1.0859375"
     inkscape:cx="155.8705"
     inkscape:cy="34.992806"
     inkscape:window-x="0"
     inkscape:window-y="0"
     inkscape:window-maximized="1"
     inkscape:current-layer="svg4" />
  <path
     d="M 112.66334,89.807987 V 25.812945 c 0,-2.533134 -2.03791,-4.571066 -4.57105,-4.571066 H 45.620923 c -10.094459,0 -18.284295,8.189835 -18.284295,18.284295 V 100.4738 c 0,10.09452 8.189836,18.28435 18.284295,18.28435 h 62.471367 c 2.53314,0 4.57105,-2.03797 4.57105,-4.57106 v -3.04742 c 0,-1.42848 -0.66658,-2.72357 -1.69504,-3.56163 -0.79997,-2.93307 -0.79997,-11.294359 0,-14.227473 1.02846,-0.818982 1.69504,-2.114116 1.69504,-3.54258 z M 51.715692,46.763705 c 0,-0.628522 0.514245,-1.142767 1.142764,-1.142767 h 40.377839 c 0.628516,0 1.142752,0.514245 1.142752,1.142767 v 3.809228 c 0,0.628524 -0.514236,1.142774 -1.142752,1.142774 H 52.858457 c -0.62852,0 -1.142765,-0.51425 -1.142765,-1.142774 z m 0,12.189538 c 0,-0.628522 0.514245,-1.142768 1.142764,-1.142768 h 40.377839 c 0.628516,0 1.142752,0.514246 1.142752,1.142768 v 3.809227 c 0,0.628525 -0.514236,1.142772 -1.142752,1.142772 H 52.858457 c -0.62852,0 -1.142765,-0.514247 -1.142765,-1.142772 z M 99.978596,106.5686 H 45.620923 c -3.371167,0 -6.094766,-2.72361 -6.094766,-6.0948 0,-3.352068 2.742644,-6.094745 6.094766,-6.094745 h 54.357673 c -0.361836,3.256917 -0.361836,8.932655 0,12.189545 z"
     id="path2"
     style="stroke-width:0.190463" />
</svg>
