<?xml version="1.0" encoding="UTF-8" standalone="no"?>
<svg
   xmlns:dc="http://purl.org/dc/elements/1.1/"
   xmlns:cc="http://creativecommons.org/ns#"
   xmlns:rdf="http://www.w3.org/1999/02/22-rdf-syntax-ns#"
   xmlns:svg="http://www.w3.org/2000/svg"
   xmlns="http://www.w3.org/2000/svg"
   xmlns:sodipodi="http://sodipodi.sourceforge.net/DTD/sodipodi-0.dtd"
   xmlns:inkscape="http://www.inkscape.org/namespaces/inkscape"
   version="1.1"
   id="svg34"
   sodipodi:docname="physical_magnitude.svg"
   inkscape:version="1.0.2 (e86c870879, 2021-01-15)"
   width="130"
   height="130"
   inkscape:export-filename="/media/Datos/workspace/workspaceOdoo/Odoo12/customs_addons_odoo_12/om_physical_magnitude/static/description/physical_magnitude.png"
   inkscape:export-xdpi="89"
   inkscape:export-ydpi="89">
  <metadata
     id="metadata40">
    <rdf:RDF>
      <cc:Work
         rdf:about="">
        <dc:format>image/svg+xml</dc:format>
        <dc:type
           rdf:resource="http://purl.org/dc/dcmitype/StillImage" />
        <dc:title />
      </cc:Work>
    </rdf:RDF>
  </metadata>
  <defs
     id="defs38" />
  <sodipodi:namedview
     pagecolor="#ffffff"
     bordercolor="#666666"
     borderopacity="1"
     objecttolerance="10"
     gridtolerance="10"
     guidetolerance="10"
     inkscape:pageopacity="0"
     inkscape:pageshadow="2"
     inkscape:window-width="1368"
     inkscape:window-height="706"
     id="namedview36"
     showgrid="false"
     inkscape:zoom="0.921875"
     inkscape:cx="124.26876"
     inkscape:cy="58.558895"
     inkscape:window-x="0"
     inkscape:window-y="0"
     inkscape:window-maximized="1"
     inkscape:current-layer="svg34"
     inkscape:document-rotation="0" />
  <path
     inkscape:connector-curvature="0"
     style="stroke-width:0.132641"
     d="m 35.575959,8.6367112 c -7.032411,0 -12.733503,5.7010648 -12.733503,12.7335028 V 48.3419 c -2.622948,2.972206 -4.222437,6.869065 -4.244188,11.139807 -0.04761,9.324974 7.532573,17.001544 16.857433,17.066226 0.03977,0.002 0.08059,0.002 0.120258,0.002 9.377258,0 16.978163,-7.600582 16.978163,-16.977687 0,-4.305371 -1.603531,-8.23559 -4.244662,-11.228346 V 21.370733 c 0,-7.032441 -5.701056,-12.7335063 -12.733501,-12.7335063 z m 0,6.3667468 c 3.51059,0 6.366751,2.856172 6.366751,6.366756 v 29.379757 c 1.675241,1.898341 4.244661,4.266022 4.244661,8.820746 0,5.851012 -4.760383,10.611409 -10.611412,10.611409 l -0.07623,-0.002 c -5.81758,-0.03937 -10.564424,-4.846137 -10.534708,-10.665843 0.02308,-4.507102 2.555412,-6.851146 4.244188,-8.764878 V 21.37004 c 0,-3.510577 2.856188,-6.366751 6.366747,-6.366751 z m 56.004889,4.02402 c -4.205937,0 -7.616263,3.409846 -7.616263,7.615765 0,0.326537 0.05612,0.638931 0.09612,0.954993 l -12.222626,4.098355 c -0.797777,0.267513 -1.226749,1.131145 -0.959249,1.928918 l 0.967771,2.888165 c 0.267515,0.797772 1.131142,1.227234 1.928923,0.959726 l 13.52326,-4.534425 c 0.387462,0.263705 0.802586,0.48761 1.236672,0.678012 v 32.629658 c 0,0.841566 0.681612,1.523154 1.523175,1.523154 H 111.3832 c 0.84161,0 1.52318,-0.681588 1.52318,-1.523154 v -3.046311 c -0.01,-0.841566 -0.68252,-1.523621 -1.52408,-1.523621 H 94.627145 V 33.616987 c 1.943978,-0.851086 3.436589,-2.496283 4.129586,-4.519273 l 12.566349,-4.213411 c 0.79779,-0.267512 1.2273,-1.13114 0.95976,-1.928921 l -0.96826,-2.888161 c -0.26752,-0.797772 -1.13062,-1.227233 -1.92844,-0.959725 L 98.160161,22.870635 C 96.845433,20.58489 94.407344,19.027478 91.580848,19.027478 Z m -56.004889,6.587391 c -2.344125,0 -4.244182,1.900509 -4.244182,4.244657 v 22.360571 c -2.536592,1.468052 -4.244658,4.20904 -4.244658,7.35062 0,4.688288 3.800574,8.488847 8.48884,8.488847 4.68831,0 8.488847,-3.80056 8.488847,-8.488847 0,-3.14158 -1.707582,-5.882568 -4.244188,-7.35062 V 29.859526 c 0,-2.344148 -1.90049,-4.244658 -4.244659,-4.244657 z m 74.283661,2.551529 c -1.62329,-0.0022 -3.24683,0.839048 -4.08841,2.522175 -8.29379,16.589493 -8.095905,15.787983 -8.095905,17.279762 h -0.0093 c 0,4.205929 5.456055,7.615766 12.185735,7.615766 6.72967,0 12.18567,-3.409837 12.18567,-7.615766 h -0.006 c 0,-1.540322 0.12751,-0.831163 -8.09682,-17.279762 -0.84012,-1.679801 -2.46318,-2.521343 -4.08649,-2.522175 z m -0.002,4.56993 6.85446,13.708852 H 103.0042 Z m -36.555137,7.615294 c -1.623274,-0.0022 -3.246842,0.839047 -4.088413,2.522176 -8.293685,16.589501 -8.095747,15.787974 -8.095747,17.27976 h -0.0049 c 0,4.205916 5.456041,7.616241 12.185698,7.616241 6.729696,0 12.185211,-3.410325 12.185211,-7.616241 h -0.0049 c 0,-1.540324 0.127455,-0.83116 -8.096805,-17.27976 h 0.0049 c -0.839026,-1.6798 -2.462142,-2.521342 -4.085407,-2.522176 z m -0.0017,4.569935 6.85443,13.708849 H 66.447987 Z M 10.595329,77.691356 c -1.46136,0 -2.6466979,1.184848 -2.6466979,2.646242 v 37.051852 c 0,0.22912 0.075612,0.43315 0.1302172,0.64486 L 21.181843,104.93246 v -3.42224 h -4.631472 c -0.365565,0 -0.661916,-0.29634 -0.661916,-0.6619 v -1.323337 c 0,-0.365578 0.296351,-0.661477 0.661916,-0.661477 h 4.631484 v -5.292907 h -4.631484 c -0.365565,0 -0.661916,-0.296359 -0.661916,-0.661947 v -1.322844 c 0,-0.365552 0.296351,-0.661908 0.661916,-0.661908 h 4.631484 v -5.292912 h -4.631484 c -0.365565,0 -0.661916,-0.296377 -0.661916,-0.661911 v -1.322881 c 0,-0.365552 0.296351,-0.661914 0.661916,-0.661914 h 4.631484 v -2.646684 c 0,-1.461394 -1.18531,-2.646242 -2.646701,-2.646242 z m 77.57238,4.988966 c -6.676499,0 -12.088137,5.4121 -12.088137,12.088621 0,6.676497 5.411638,12.088167 12.088137,12.088167 6.676488,0 12.088151,-5.41167 12.088151,-12.088167 0,-6.676521 -5.411663,-12.088621 -12.088151,-12.088621 z m -14.505665,4.83556 c -2.666218,0 -4.835554,2.168823 -4.835554,4.835046 v 24.176792 c 0,2.66622 2.169336,4.83556 4.835554,4.83556 h 29.011816 c 2.66626,0 4.83512,-2.16934 4.83512,-4.83556 V 92.350928 c 0,-2.666223 -2.16886,-4.835046 -4.83512,-4.835046 h -1.963 c 1.24055,2.136589 1.963,4.609478 1.963,7.253061 0,7.998667 -6.507464,14.505707 -14.506139,14.505707 -7.998655,0 -14.505677,-6.50704 -14.505677,-14.505707 0,-2.643583 0.72197,-5.116472 1.962535,-7.253061 z m 18.140048,1.206847 c 0.156954,0.004 0.31596,0.03312 0.468737,0.09942 0.61349,0.262942 0.897569,0.973901 0.635371,1.586627 l -2.543436,5.9345 c 0.504642,0.540903 0.827128,1.254896 0.827128,2.052005 0,1.668909 -1.353204,3.022109 -3.022146,3.022109 -1.668918,0 -3.022111,-1.3532 -3.022111,-3.022109 0,-1.660642 1.341794,-3.004602 2.999393,-3.017444 l 2.53732,-5.920274 c 0.198308,-0.46295 0.648894,-0.738076 1.119744,-0.734834 z M 23.053531,106.80314 9.9507217,119.90595 c 0.2117243,0.0545 0.4166173,0.12975 0.6448653,0.12975 H 47.64699 c 1.461392,0 2.646699,-1.18482 2.646699,-2.64625 v -7.93958 c 0,-1.46143 -1.185307,-2.64673 -2.646699,-2.64673 h -2.646221 v 4.63149 c 0,0.36557 -0.296347,0.66142 -0.66191,0.66142 h -1.323344 c -0.365541,0 -0.661437,-0.29585 -0.661437,-0.66142 v -4.63149 h -5.292879 v 4.63149 c 0,0.36557 -0.296352,0.66142 -0.661909,0.66142 h -1.323337 c -0.365552,0 -0.66144,-0.29585 -0.66144,-0.66142 v -4.63149 h -5.292906 v 4.63149 c 0,0.36557 -0.296356,0.66142 -0.661911,0.66142 h -1.323349 c -0.365552,0 -0.661434,-0.29585 -0.661434,-0.66142 v -4.63149 z"
     id="path32" />
</svg>
